<svg width="16" height="16" viewBox="0 0 16 16" fill="none" xmlns="http://www.w3.org/2000/svg">
<path d="M10.69 0C10.5138 0.01625 10.3837 0.17375 10.4 0.35C10.4162 0.52625 10.5737 0.65625 10.75 0.64H14.9L8.22 7.33C8.125 7.4075 8.08125 7.53125 8.10875 7.65125C8.13625 7.77 8.23 7.86375 8.34875 7.89125C8.46875 7.91875 8.5925 7.875 8.67 7.78L15.36 1.1V5.25C15.3587 5.365 15.4187 5.4725 15.5187 5.53125C15.6187 5.58875 15.7413 5.58875 15.8412 5.53125C15.9412 5.4725 16.0012 5.365 16 5.25V0H10.75C10.74 0 10.73 0 10.72 0C10.71 0 10.7 0 10.69 0ZM0.64 3.2C0.4725 3.2 0.30125 3.25875 0.18 3.38C0.0587501 3.50125 0 3.6725 0 3.84V15.36C0 15.5275 0.0587501 15.6987 0.18 15.82C0.30125 15.9412 0.4725 16 0.64 16H12.16C12.3275 16 12.4987 15.9412 12.62 15.82C12.7413 15.6987 12.8 15.5275 12.8 15.36V5.76C12.8012 5.645 12.7413 5.5375 12.6412 5.47875C12.5412 5.42125 12.4187 5.42125 12.3187 5.47875C12.2188 5.5375 12.1587 5.645 12.16 5.76V15.36H0.64V3.84H10.24C10.355 3.84125 10.4625 3.78125 10.5212 3.68125C10.5787 3.58125 10.5787 3.45875 10.5212 3.35875C10.4625 3.25875 10.355 3.19875 10.24 3.2H0.64Z" fill="#434343"/>
</svg>
