<svg width="50" height="50" viewBox="0 0 50 50" fill="none" xmlns="http://www.w3.org/2000/svg">
<g clip-path="url(#clip0_246_6)">
<path d="M34.219 5.46875C28.2385 5.46875 23.3752 10.332 23.3752 16.3125C23.3752 16.6719 23.4651 17.0234 23.5002 17.375C16.1057 16.668 9.56665 13.1055 5.12525 7.65625C4.91822 7.39453 4.5979 7.25391 4.26197 7.27734C3.92993 7.30078 3.63306 7.49219 3.469 7.78125C2.5354 9.38672 2.00025 11.2344 2.00025 13.2188C2.00025 15.6211 2.85962 17.8203 4.18775 19.625C3.92993 19.5117 3.64868 19.4492 3.4065 19.3125C3.0979 19.1484 2.72681 19.1562 2.42603 19.3359C2.12525 19.5156 1.94165 19.8398 1.93775 20.1875V20.3125C1.93775 23.9961 3.844 27.1953 6.6565 29.1562C6.62525 29.1523 6.594 29.1641 6.56275 29.1562C6.219 29.0977 5.87134 29.2188 5.64087 29.4805C5.4104 29.7422 5.33618 30.1055 5.43775 30.4375C6.55493 33.9102 9.4065 36.5625 12.9377 37.5312C10.1252 39.2031 6.86353 40.1875 3.344 40.1875C2.58228 40.1875 1.85181 40.1484 1.12525 40.0625C0.656496 40 0.207277 40.2734 0.0510277 40.7188C-0.109129 41.1641 0.0666527 41.6602 0.468996 41.9062C4.98072 44.8008 10.3362 46.5 16.094 46.5C25.426 46.5 32.7463 42.6016 37.6565 37.0312C42.5667 31.4609 45.1252 24.2266 45.1252 17.4688C45.1252 17.1836 45.1018 16.9062 45.094 16.625C46.926 15.2227 48.5627 13.5781 49.844 11.6562C50.0979 11.2852 50.0706 10.7891 49.7776 10.4453C49.4885 10.1016 49.0002 9.99609 48.594 10.1875C48.0784 10.418 47.4768 10.4414 46.9377 10.625C47.6487 9.67578 48.2581 8.65234 48.6252 7.5C48.7502 7.10547 48.6135 6.67188 48.2893 6.41406C47.9651 6.16016 47.512 6.12891 47.1565 6.34375C45.4495 7.35547 43.5588 8.06641 41.5627 8.5C39.6252 6.6875 37.0745 5.46875 34.219 5.46875ZM34.219 7.46875C36.7698 7.46875 39.0745 8.55859 40.6877 10.2812C40.9299 10.5312 41.2854 10.6367 41.6252 10.5625C42.9299 10.3047 44.1682 9.92578 45.3752 9.4375C44.6799 10.375 43.8206 11.1758 42.8127 11.7812C42.3557 12.0039 42.1409 12.5312 42.3088 13.0117C42.4729 13.4883 42.9729 13.7656 43.469 13.6562C44.469 13.5352 45.3596 13.1289 46.3127 12.875C45.4573 13.8008 44.5198 14.6367 43.5002 15.375C43.2229 15.5781 43.0706 15.9062 43.094 16.25C43.1096 16.6562 43.1252 17.0586 43.1252 17.4688C43.1252 23.7188 40.7268 30.5039 36.1565 35.6875C31.5862 40.8711 24.8752 44.5 16.094 44.5C12.1057 44.5 8.34009 43.6172 4.93775 42.0625C9.1565 41.7383 13.0471 40.2461 16.1877 37.7812C16.5159 37.5195 16.6448 37.082 16.512 36.6836C16.3792 36.2852 16.012 36.0117 15.594 36C12.2971 35.9414 9.5354 34.0234 8.06275 31.3125C8.11743 31.3125 8.16431 31.3125 8.219 31.3125C9.20728 31.3125 10.1838 31.1875 11.094 30.9375C11.5315 30.8086 11.8323 30.4023 11.8167 29.9453C11.801 29.4883 11.4768 29.0977 11.0315 29C7.4729 28.2812 4.80493 25.3828 4.18775 21.7812C5.19556 22.1289 6.22681 22.4023 7.344 22.4375C7.80103 22.4648 8.21509 22.1797 8.35571 21.7461C8.49634 21.3125 8.32447 20.8359 7.93775 20.5938C5.56275 19.0039 4.00025 16.2969 4.00025 13.2188C4.00025 12.0781 4.29712 11.0312 4.68775 10.0312C9.68775 15.5195 16.6877 19.1641 24.594 19.5625C24.9065 19.5781 25.2112 19.4492 25.4143 19.2109C25.6174 18.9687 25.6956 18.6484 25.6252 18.3438C25.4729 17.6953 25.3752 17.0078 25.3752 16.3125C25.3752 11.4141 29.3206 7.46875 34.219 7.46875Z" fill="black"/>
</g>
<defs>
<clipPath id="clip0_246_6">
<rect width="50" height="50" fill="white"/>
</clipPath>
</defs>
</svg>
